# AST/ASF file generated using VICON BodyLanguage
# -----------------------------------------------
:version 1.10
:name VICON
:units
  mass 1.0
  length 0.45
  angle deg
:documentation
   .ast/.asf automatically generated from VICON data using
   VICON BodyBuilder and BodyLanguage model FoxedUp or BRILLIANT.MOD
:root
   order TX TY TZ RX RY RZ
   axis XYZ
   position 0 0 0  
   orientation 0 0 0 
:bonedata
  begin
     id 1 
     name lhipjoint
     direction 0.627412 -0.730575 0.26947 
     length 2.49821 
     axis 0 0 0  XYZ
  end
  begin
     id 2 
     name lfemur
     direction 0.34202 -0.939693 0  
     length 6.89165  
     axis 0 0 20  XYZ
    dof rx ry rz
    limits (-160.0 20.0)
           (-70.0 70.0)
           (-60.0 70.0)
  end
  begin
     id 3 
     name ltibia
     direction 0.34202 -0.939693 0   
     length 7.91287   
     axis 0 0 20   XYZ
    dof rx
    limits (-10.0 170.0)
  end
  begin
     id 4 
     name lfoot
     direction 0.0941675 -0.258723 0.96135   
     length 2.16919   
     axis -90 7.62852e-016 20   XYZ
    dof rx rz
    limits (-45.0 90.0)
           (-70.0 20.0)
  end
  begin
     id 5 
     name ltoes
     direction 1.5347e-011 -4.21941e-011 1   
     length 1.08535   
     axis -90 7.62852e-016 20   XYZ
    dof rx
    limits (-90.0 20.0)
  end
  begin
     id 6 
     name rhipjoint
     direction -0.614241 -0.740361 0.27308   
     length 2.46519  
     axis 0 0 0  XYZ 
  end
  begin
     id 7 
     name rfemur
     direction -0.34202 -0.939693 0   
     length 7.27512   
     axis 0 0 -20   XYZ
    dof rx ry rz
    limits (-160.0 20.0)
           (-70.0 70.0)
           (-70.0 60.0)
  end
  begin
     id 8 
     name rtibia
     direction -0.34202 -0.939693 0   
     length 7.89523   
     axis 0 0 -20   XYZ
    dof rx
    limits (-10.0 170.0)
 end
 begin
     id 9 
     name rfoot
     direction -0.0860444 -0.236405 0.967837   
     length 2.29534  
     axis -90 -7.62852e-016 -20   XYZ
    dof rx rz
    limits (-45.0 90.0)
           (-20.0 70.0)
  end
  begin
     id 10 
     name rtoes
     direction -1.53608e-011 -4.21861e-011 1   
     length 1.14915   
     axis -90 -7.62852e-016 -20   XYZ
    dof rx
    limits (-90.0 20.0)
  end
  begin
     id 11 
     name lowerback
     direction -0.00734074 0.997215 -0.0742143   
     length 2.13469   
     axis 0 0 0   XYZ
    dof rx ry rz
    limits (-20.0 45.0)
           (-30.0 30.0)
           (-30.0 30.0)
  end
  begin
     id 12 
     name upperback
     direction 0.0285728 0.99958 -0.00488656   
     length 2.13416   
     axis 0 0 0   XYZ
    dof rx ry rz
    limits (-20.0 45.0)
           (-30.0 30.0)
           (-30.0 30.0)
  end
  begin
     id 13 
     name thorax
     direction 0.0316844 0.999056 0.0297249   
     length 2.14463   
     axis 0 0 0   XYZ
    dof rx ry rz
    limits (-20.0 45.0)
           (-30.0 30.0)
           (-30.0 30.0)
  end
  begin
     id 14 
     name lowerneck
     direction -0.0281545 0.996802 0.0747864   
     length 1.79004   
     axis 0 0 0   XYZ
    dof rx ry rz
    limits (-20.0 45.0)
           (-30.0 30.0)
           (-30.0 30.0)
  end
  begin
     id 15 
     name upperneck
     direction -0.00100185 0.982732 -0.185031   
     length 1.79988   
     axis 0 0 0   XYZ
    dof rx ry rz
    limits (-20.0 45.0)
           (-30.0 30.0)
           (-30.0 30.0)
  end
  begin
     id 16
     name head
     direction 0.00403747 0.997539 -0.0700022  
     length 1.81696  
     axis 0 0 0   XYZ
    dof rx ry rz
    limits (-20.0 45.0)
           (-30.0 30.0)
           (-30.0 30.0)
  end
  begin
     id 17 
     name lclavicle
     direction 0.959882 0.242905 -0.140082  
     length 3.87755  
     axis 0 0 0   XYZ
    dof ry rz
    limits (-20.0 10.0)
           (0.0 20.0)
  end
  begin
     id 18 
     name lhumerus
     direction 1 -4.4895e-011 3.76166e-027   
     length 5.14601   
     axis 180 -30 -90   XYZ
    dof rx ry rz
    limits (-60.0 90.0)
           (-90.0 90.0)
           (-90.0 90.0)
  end
  begin
     id 19
     name lradius
     direction 1 -4.48966e-011 -3.24039e-027   
     length 3.64452   
     axis 180 -30 -90   XYZ
    dof rx
    limits (-10.0 170.0)
  end
  begin
     id 20
     name lwrist
     direction 1 -4.48999e-011 2.57119e-027   
     length 1.82226   
     axis -1.61769e-015 90 90   XYZ
    dof ry
    limits (-180.0 0.0)
 end
  begin
     id 21 
     name lhand
     direction 1 -4.48961e-011 5.13984e-027   
     length 0.56228   
     axis -3.27988e-015 90 90   XYZ
    dof rx rz
    limits (-90.0 90.0)
           (-45.0 45.0)
  end
  begin
     id 22 
     name lfingers
     direction 1 -4.48991e-011 1.02836e-026   
     length 0.453325   
     axis -6.5598e-015 90 90   XYZ
    dof rx
    limits (0.0 90.0)
  end
  begin
     id 23
     name lthumb
     direction 0.707107 -6.34956e-011 0.707107   
     length 0.650886   
     axis -90 45 2.19363e-014   XYZ
    dof rx rz
    limits (-45.0 45.0)
           (-45.0 45.0)
  end
  begin
     id 24 
     name rclavicle
     direction -0.929201 0.345171 -0.132073   
     length 3.55416  
     axis 0 0 0   XYZ 
    dof ry rz
    limits (-10.0 20.0)
           (-20.0 0.0)
  end
  begin
     id 25 
     name rhumerus
     direction -1 -4.48979e-011 4.53734e-027  
     length 5.33913   
     axis 180 30 90   XYZ
    dof rx ry rz
    limits (-90.0 60.0)
           (-90.0 90.0)
           (-90.0 90.0)
  end
  begin
     id 26 
     name rradius
     direction -1 -4.4896e-011 -2.24007e-027   
     length 3.56478   
     axis 180 30 90   XYZ
    dof rx
    limits (-10.0 170.0)
  end
  begin
     id 27 
     name rwrist
     direction -1 -4.48923e-011 2.56866e-027   
     length 1.78239   
     axis -1.61769e-015 -90 -90   XYZ
    dof ry
    limits (-180.0 0.0)
  end
  begin
     id 28
     name rhand
     direction -1 -4.48914e-011 5.13667e-027   
     length 0.857474   
     axis -3.27988e-015 -90 -90   XYZ
    dof rx rz
    limits (-90.0 90.0)
           (-45.0 45.0)
  end
  begin
     id 29
     name rfingers
     direction -1 -4.49112e-011 1.02998e-026   
     length 0.691318   
     axis -6.5598e-015 -90 -90   XYZ
    dof rx
    limits (0.0 90.0)
  end
  begin
     id 30
     name rthumb
     direction -0.707107 -6.34979e-011 0.707107   
     length 0.992598   
     axis -90 -45 -2.19363e-014   XYZ
    dof rx rz
    limits (-45.0 45.0)
           (-45.0 45.0)
  end
:hierarchy
  begin
    root lhipjoint rhipjoint lowerback
    lhipjoint lfemur
    lfemur ltibia
    ltibia lfoot
    lfoot ltoes
    rhipjoint rfemur
    rfemur rtibia
    rtibia rfoot
    rfoot rtoes
    lowerback upperback
    upperback thorax
    thorax lowerneck lclavicle rclavicle
    lowerneck upperneck
    upperneck head
    lclavicle lhumerus
    lhumerus lradius
    lradius lwrist
    lwrist lhand lthumb
    lhand lfingers
    rclavicle rhumerus
    rhumerus rradius
    rradius rwrist
    rwrist rhand rthumb
    rhand rfingers
  end

#!OML:ASF F:\VICON\USERDATA\INSTALL\Justin4\Justin4.ASF
:FULLY-SPECIFIED
:DEGREES
1392
root -7.87249 15.2109 8.79797 7.39749 -2.05222 1.45513
lowerback 23.7728 3.4423 -2.35942
upperback 6.14891 3.58163 -3.58923
thorax -6.34106 1.74547 -3.58848
lowerneck -13.1608 0.832846 -10.616
upperneck 6.26577 2.775 1.92234
head 3.83522 1.21371 2.47884
rclavicle -3.00165e-014 2.10712e-014
rhumerus -9.83348 -1.14212 -74.8033
rradius 128.819
rwrist -8.53918
rhand -18.4358 21.0272
rfingers 7.12502
rthumb 7.84969 -8.80703
lclavicle -3.00165e-014 2.10712e-014
lhumerus 22.1 4.53589 77.0156
lradius 127.279
lwrist 7.02196
lhand -11.7445 5.2224
lfingers 7.12502
lthumb 14.3032 34.7098
rfemur -24.2732 -14.4805 15.6268
rtibia 76.8856
rfoot -31.724 -11.2277
rtoes -23.7973
lfemur -44.7648 6.65771 3.8168
ltibia 53.2558
lfoot -3.59731 -16.4564
ltoes -32.0539
1393
root -7.93599 15.2094 8.8895 6.89133 -1.07917 1.45752
lowerback 23.7195 3.17759 -2.72468
upperback 6.17202 3.16805 -3.53471
thorax -6.32793 1.551 -3.19889
lowerneck -13.713 0.779843 -10.8995
upperneck 7.17077 2.74138 2.8608
head 4.18664 1.2159 2.83251
rclavicle -5.60573e-014 4.21423e-014
rhumerus -10.2531 -1.74283 -73.8912
rradius 128.987
rwrist -8.84158
rhand -17.6365 19.7514
rfingers 7.12502
rthumb 8.62114 -10.0526
lclavicle -5.60573e-014 4.21423e-014
lhumerus 21.324 4.38313 77.2084
lradius 127.461
lwrist 7.43661
lhand -12.3527 4.54029
lfingers 7.12502
lthumb 13.7171 34.0682
rfemur -23.4885 -15.8896 15.1939
rtibia 77.5045
rfoot -30.8647 -9.0861
rtoes -24.972
lfemur -43.5924 4.57831 4.57377
ltibia 52.3313
lfoot -5.00785 -15.9004
ltoes -34.8107
1394
root -7.99553 15.205 8.97715 6.75302 0.256035 1.35559
lowerback 23.1718 2.75057 -2.82706
upperback 6.22918 2.63897 -3.48356
thorax -6.01088 1.30154 -2.90123
lowerneck -13.6601 0.798754 -10.5865
upperneck 7.322 2.64877 3.39591
head 4.22595 1.20732 2.94619
rclavicle 2.18663e-014 -2.14687e-014
rhumerus -11.218 -2.92573 -73.2934
rradius 129.802
rwrist -9.75488
rhand -15.8895 18.3861
rfingers 7.12502
rthumb 10.3067 -11.3413
lclavicle 2.18663e-014 -2.14687e-014
lhumerus 20.779 4.12436 77.3761
lradius 127.372
lwrist 7.09762
lhand -12.9383 4.16822
lfingers 7.12502
lthumb 13.1526 33.7334
rfemur -23.1024 -17.545 14.9296
rtibia 78.1825
rfoot -29.9397 -6.81277
rtoes -26.3096
lfemur -43.1734 2.59218 5.34753
ltibia 51.3902
lfoot -5.96532 -15.9286
ltoes -36.0621
1395
root -8.05974 15.2006 9.05515 6.7086 1.7355 0.918541
lowerback 22.9112 2.29324 -2.65449
upperback 6.06047 2.11344 -3.33935
thorax -6.07719 1.04864 -2.68995
lowerneck -13.2925 0.701286 -10.2037
upperneck 7.31502 2.3498 3.95726
head 4.18134 1.10362 3.03677
rclavicle 1.98785e-015 -1.35174e-014
rhumerus -12.3179 -4.04931 -72.6172
rradius 130.567
rwrist -10.3358
rhand -14.8427 17.8083
rfingers 7.12502
rthumb 11.3165 -11.8664
lclavicle 1.98785e-015 -1.35174e-014
lhumerus 20.0243 3.90746 77.5708
lradius 127.627
lwrist 7.59323
lhand -12.1214 5.06309
lfingers 7.12502
lthumb 13.94 34.5758
rfemur -23.0135 -19.0824 15.1543
rtibia 78.9157
rfoot -28.6942 -4.49693
rtoes -27.5676
lfemur -43.125 1.07908 6.42389
ltibia 50.4645
lfoot -6.02779 -16.3476
ltoes -36.2875
1396
root -8.1298 15.2133 9.12967 6.69345 3.08906 0.490236
lowerback 22.8411 1.97221 -2.58803
upperback 5.77768 1.72447 -3.17183
thorax -6.36449 0.861452 -2.44406
lowerneck -12.9379 0.506164 -9.69663
upperneck 7.40469 1.91317 4.42601
head 4.18183 0.926781 3.0707
rclavicle -1.27222e-014 1.98785e-014
rhumerus -13.3499 -5.26085 -71.8193
rradius 131.274
rwrist -10.5762
rhand -14.0999 17.4533
rfingers 7.12502
rthumb 12.0328 -12.1808
lclavicle -1.27222e-014 1.98785e-014
lhumerus 19.3512 3.52696 77.7046
lradius 127.498
lwrist 7.45468
lhand -11.6427 5.39778
lfingers 7.12502
lthumb 14.4013 34.8782
rfemur -23.213 -20.3868 15.437
rtibia 79.6736
rfoot -26.8182 -1.96558
rtoes -28.5744
lfemur -43.0707 -0.357783 7.50305
ltibia 49.5211
lfoot -6.02095 -16.3272
ltoes -38.1425
1397
root -8.21444 15.2418 9.205 6.77247 4.1939 0.0160371
lowerback 22.556 1.85472 -2.71567
upperback 5.58884 1.57486 -2.91096
thorax -6.43893 0.792399 -2.0405
lowerneck -12.6878 0.332395 -9.09965
upperneck 7.33525 1.52208 4.73156
head 4.14925 0.768958 3.041
rclavicle 3.81667e-014 -6.36111e-014
rhumerus -14.6775 -6.38163 -70.9824
rradius 131.425
rwrist -8.7151
rhand -16.0257 19.3528
rfingers 7.12502
rthumb 10.1754 -10.3812
lclavicle 3.81667e-014 -6.36111e-014
lhumerus 18.9591 3.17814 77.9423
lradius 127.441
lwrist 7.40399
lhand -10.5303 6.57868
lfingers 7.12502
lthumb 15.4729 35.9795
rfemur -23.7192 -21.3076 15.8641
rtibia 80.496
rfoot -24.3408 1.10659
rtoes -28.9823
lfemur -42.9561 -1.6291 8.67819
ltibia 48.4715
lfoot -5.86289 -16.2744
ltoes -39.6905
1398
root -8.30392 15.2946 9.28428 6.84665 5.15401 -0.371084
lowerback 22.2325 1.81429 -2.92921
upperback 5.51869 1.51578 -2.60127
thorax -6.36338 0.768028 -1.55677
lowerneck -12.6492 0.0390475 -8.89703
upperneck 7.24243 1.04195 5.22757
head 4.14632 0.568891 3.13008
rclavicle 7.15625e-015 7.95139e-016
rhumerus -16.021 -7.62856 -69.8921
rradius 132.061
rwrist -8.103
rhand -16.6236 19.8476
rfingers 7.12502
rthumb 9.59855 -9.91374
lclavicle 7.15625e-015 7.95139e-016
lhumerus 18.7496 3.03546 78.3076
lradius 127.438
lwrist 7.45882
lhand -9.80932 7.40841
lfingers 7.12502
lthumb 16.1673 36.7542
rfemur -24.267 -22.0428 16.0993
rtibia 81.3539
rfoot -20.9637 4.99626
rtoes -27.3166
lfemur -42.6553 -2.86218 9.72645
ltibia 47.3008
lfoot -5.12171 -16.136
ltoes -38.0275
1399
root -8.38963 15.382 9.3578 6.97543 5.947 -0.595512
lowerback 22.0191 1.7646 -3.12249
upperback 5.45851 1.43872 -2.35774
thorax -6.32976 0.73447 -1.15655
lowerneck -12.5914 -0.261234 -8.79501
upperneck 7.0001 0.572748 5.71766
head 4.09526 0.372087 3.2324
rclavicle -3.18055e-015 0
rhumerus -17.1625 -8.7678 -68.8084
rradius 133.027
rwrist -8.26697
rhand -16.105 18.8995
rfingers 7.12502
rthumb 10.0988 -10.8382
lclavicle -3.18055e-015 0
lhumerus 18.5617 3.15098 78.5638
lradius 127.204
lwrist 7.41944
lhand -10.018 7.11534
lfingers 7.12502
lthumb 15.9663 36.4773
rfemur -25.3288 -22.641 16.1516
rtibia 82.0388
rfoot -15.7484 9.34484
rtoes -21.8506
lfemur -42.1911 -4.06166 10.5018
ltibia 45.9415
lfoot -4.45588 -15.6854
ltoes -38.3978
1400
root -8.47362 15.4749 9.41044 7.15437 6.43634 -0.849993
lowerback 21.9587 1.77108 -3.27372
upperback 5.39083 1.43323 -2.12874
thorax -6.38161 0.734886 -0.820904
lowerneck -12.7863 -0.48332 -8.67616
upperneck 6.82163 0.233401 6.14798
head 4.09722 0.237891 3.32449
rclavicle 2.94201e-014 2.46493e-014
rhumerus -18.4032 -9.8386 -67.9091
rradius 134.411
rwrist -9.00597
rhand -14.8309 17.3352
rfingers 7.12502
rthumb 11.3279 -12.3389
lclavicle 2.94201e-014 2.46493e-014
lhumerus 18.1839 3.49693 78.6724
lradius 127.024
lwrist 7.72605
lhand -10.6268 6.51069
lfingers 7.12502
lthumb 15.3799 35.9186
rfemur -26.7624 -22.8421 16.2302
rtibia 82.7648
rfoot -9.85794 13.1802
rtoes -13.1397
lfemur -41.6622 -4.89916 11.2297
ltibia 44.4322
lfoot -3.29269 -14.9406
ltoes -38.3799
1401
root -8.56353 15.5865 9.46465 7.16626 6.92334 -1.03602
lowerback 21.9976 1.73855 -3.40622
upperback 5.45866 1.38316 -1.8814
thorax -6.3361 0.712578 -0.464019
lowerneck -13.2811 -0.698461 -8.62345
upperneck 6.80739 -0.065945 6.58605
head 4.19648 0.125068 3.43557
rclavicle 3.97569e-015 1.59028e-015
rhumerus -19.7891 -10.4963 -67.3
rradius 134.571
rwrist -7.15527
rhand -16.6976 19.719
rfingers 7.12502
rthumb 9.52711 -10.0456
lclavicle 3.97569e-015 1.59028e-015
lhumerus 17.7381 4.00159 78.683
lradius 127.088
lwrist 8.45037
lhand -10.7361 6.73096
lfingers 7.12502
lthumb 15.2747 36.147
rfemur -28.0275 -23.0629 16.1787
rtibia 83.369
rfoot -5.57853 16.1344
rtoes -6.06145
lfemur -40.883 -5.70176 11.7567
ltibia 42.7623
lfoot -1.87406 -14.2227
ltoes -37.8288
1402
root -8.65467 15.7092 9.52802 7.12744 7.44979 -0.981469
lowerback 21.8758 1.62977 -3.66499
upperback 5.64841 1.21688 -1.68019
thorax -6.07197 0.632596 -0.0480228
lowerneck -13.4827 -0.825534 -8.38341
upperneck 6.57492 -0.279087 6.82591
head 4.175 0.0458205 3.45559
rclavicle 1.39149e-014 -2.38542e-014
rhumerus -20.8249 -10.9254 -66.9453
rradius 134.744
rwrist -6.00242
rhand -17.1553 20.2402
rfingers 7.12502
rthumb 9.08544 -9.5441
lclavicle 1.39149e-014 -2.38542e-014
lhumerus 17.3528 4.71541 78.5807
lradius 127.04
lwrist 9.11506
lhand -10.51 6.98257
lfingers 7.12502
lthumb 15.4925 36.3818
rfemur -29.0666 -23.4832 15.7316
rtibia 83.9892
rfoot -4.20662 18.2971
rtoes -3.26428
lfemur -39.998 -6.5031 11.8681
ltibia 41.0812
lfoot -0.567659 -13.4479
ltoes -36.742
